# xmcd
# 
# Track frame offsets:
#     150
#     15381
#     31615
#     46961
#     63307
#     76042
#     91119
#     107229
#     115653
#     129731
#     145824
# 
# Disc length: 2119
# 
# Revision: 0
# Processed by: cddbd v1.5.2PL0 Copyright (c) Steve Scherf et al.
# Submitted via: fre:ac v1.0.17
# 
DISCID=7c08450b
DTITLE=Pink Pedrazzi - A Calico Collection
DYEAR=2013
DGENRE=Blues
TTITLE0=Get Out Of That Hole
TTITLE1=Obviously Changed
TTITLE2=Killing Time
TTITLE3=Walzing
TTITLE4=Sweet Marie
TTITLE5=The Raft
TTITLE6=Oh'Ahknzee
TTITLE7=The Calico Song
TTITLE8=Hell Yeah
TTITLE9=Perfect Ruin
TTITLE10=Thank You For The Time
EXTD=
EXTT0=
EXTT1=
EXTT2=
EXTT3=
EXTT4=
EXTT5=
EXTT6=
EXTT7=
EXTT8=
EXTT9=
EXTT10=
PLAYORDER=
